<svg xmlns="http://www.w3.org/2000/svg" xmlns:xlink="http://www.w3.org/1999/xlink" preserveAspectRatio="none" width="275" height="285"><defs><g id="a"><path fill="#F8C800" d="M115.5 10.75q-16.25 2.4-30.9 8.45-12.65 5.15-24 13.05-10.75 7.25-20.5 16.9-6.2 6.2-11.35 12.8Q19.35 73.85 13 87.1 0 113.95 0 146.15q0 17.45 3.8 33.4 8.5 35.7 36.3 63.35 39.6 39.75 95.3 40.35-.45-.35-.85-.75-.1-.1-.1-.2-.25-.25-.35-.4-1.45-1.9-1.45-4.25 0-2.75 2.65-5.5 2.5-2.75 8.1-4.05l-5-30.2q-3 .5-6.1.6h-4.75q-21.6-.7-37.35-16.6-16.95-16.8-16.95-40.9v-4.8q0-3.3 1.2-7.25 4.55-22.2 22.65-36.4 2.05-1.55 4.3-3.1 1.8-1.2 3.85-2.4l12.4-6.65q-.15-.6-.25-1.1-2.25-13.6-3-27.2-.25-2.35-.25-4.9-.7-17.65 1-35.3.55-6.9 1.65-13.85 3.2-15.85 12.55-28.6-7.05.25-13.85 1.3m43.55 170.5q-4.3-4.05-10.3-5.75-5.8-1.9-15.35-1.9l8.95 57.85q7-2.75 11.2-5.25 1.2-.7 2.15-1.4 4.15-3.35 6.65-7.4 4.9-7.4 4.9-16.95 0-11.6-8.2-19.2m-38.3-48.8q-4.2 1.9-6.8 4.3-2.5 2.25-5.85 5.85-1.45 1.75-2.4 2.7-9.05 10.65-14.2 20.4-5.95 11.7-5.95 24.85 0 19.2 14.05 31.15 10.4 8.8 24.6 10.85 4.15.6 8.7.6 2.65 0 5-.4l-10.85-58.45q-9.9 1.9-13.85 10.65-.6.95-.8 2-1.2 3.25-1.1 7.65 0 8.95 3.6 14.55-6.55-5.15-8.85-10.15-2.35-5-2.35-11.1 0-9.05 3.65-16.2 2.75-4.2 5.25-6.7 5.05-5.1 11.5-7.25l-3.35-25.3M150.7 46.8q0-3.95-.25-7.4-.5-7.9-2.15-13.75-2.05-8.8-6.2-8.8-1.7 0-3.6 1.3-7.6 7.3-13.35 25.9-4.9 16.1-4.9 29.7 0 7.15.35 13.45.15 3.5.35 6.7.75 8.7 2.55 21.7.1.75.2 1.55 1.45-1.15 3-2.25l3.35-3.35q5.35-5.7 8.45-11.55.5-.95.95-2.05.15-.35.35-.7 10.65-22.9 10.9-50.1v-.35z"/><path fill="#0097D7" d="M215.8 116.55q1.45-39.25-5-86.1Q183.95 12.9 151.05 9.9q.25.75.6 1.7l.45 1.2q3.1 6.05 4.45 13.35 1.05 5.5 2 12.75l.5 4.05v.5l.2 3.35q1.45 19.05-2.25 36 34.1 20.65 58.8 33.75m57.75 41.55q-14.3-2.75-47.45-24.85.45 74.7-34 138.9 22.65-10.15 41.6-29.25 36.05-35.65 39.85-84.8z"/><path fill="#0054D8" d="M233.7 49.15q-10.85-10.85-22.75-18.6 13.1 48.1 14.9 91.25 32.45 16.6 48.05 17.9-2.25-52.6-40.2-90.55M175.5 179.1q2.75 7 2.75 15.6 0 13.15-7.4 23.15-3.95 5.4-9.8 9.8-2.75 2-6.45 4.15-1.75 1.1-3.8 2.15-3.1 1.55-6.45 2.5l5.15 33.2q-.15.8-.25 1.65 59.55-47.25 66.1-145.3-24.45-16.8-58.45-42.7-1.35 5.45-3 10.7-.25 1-.5 1.95-.8 2-1.75 4.05-.25.45-.5.95-3.8 8.1-8 13.6-5.35 7.15-16.55 15.25l3.8 26.5q5.5-.7 11.8.5 3.85.55 8 2 9.05 3.35 16.45 9.45 6 4.05 8.85 10.85z"/><path d="M210.7 29.85q0 .25.1.6 6.45 46.85 5 86.1-24.7-13.1-58.8-33.75 3.7-16.95 2.25-36l-.2-3.35v-.5l-.5-4.05q-.95-7.25-2-12.75-1.35-7.3-4.45-13.35l-.45-1.2q-.35-.95-.6-1.7-.25-.35-.35-.7-.15-.25-.15-.5-1.8-4.15-5.7-7-3.95-2.9-6.8-.85-4.2 2.85-6.8 5.95-.95 1.35-1.9 2.65Q120 22.2 116.8 38.05q-1.1 6.95-1.65 13.85-1.7 17.65-1 35.3 0 2.55.25 4.9.75 13.6 3 27.2.1.5.25 1.1l-12.4 6.65q-2.05 1.2-3.85 2.4-2.25 1.55-4.3 3.1-18.1 14.2-22.65 36.4-1.2 3.95-1.2 7.25v4.8q0 24.1 16.95 40.9 15.75 15.9 37.35 16.6h4.75q3.1-.1 6.1-.6l5 30.2q-5.6 1.3-8.1 4.05-2.65 2.75-2.65 5.5 0 2.35 1.45 4.25.1.15.35.4 0 .1.1.2.4.4.85.75 1.8 1.4 3.85 1.4 2.25 0 4.25-1.55 21.85-.95 41.05-8 3.85-1.4 7.55-2.95 34.45-64.2 34-138.9 33.15 22.1 47.45 24.85.25-2.5.35-4.9v-.1q0-1.2.15-2.3v-4.65q0-3.35-.15-6.45-15.6-1.3-48.05-17.9-1.8-43.15-14.9-91.25-.15-.35-.25-.7M178.25 194.7q0-8.6-2.75-15.6-2.85-6.8-8.85-10.85-7.4-6.1-16.45-9.45-4.15-1.45-8-2-6.3-1.2-11.8-.5l-3.8-26.5q11.2-8.1 16.55-15.25 4.2-5.5 8-13.6.25-.5.5-.95.95-2.05 1.75-4.05.25-.95.5-1.95 1.65-5.25 3-10.7 34 25.9 58.45 42.7-6.55 98.05-66.1 145.3.1-.85.25-1.65l-5.15-33.2q3.35-.95 6.45-2.5 2.05-1.05 3.8-2.15 3.7-2.15 6.45-4.15 5.85-4.4 9.8-9.8 7.4-10 7.4-23.15m-27.8-155.3q.25 3.45.25 7.4v.35q-.25 27.2-10.9 50.1-.2.35-.35.7-.45 1.1-.95 2.05-3.1 5.85-8.45 11.55l-3.35 3.35q-1.55 1.1-3 2.25-.1-.8-.2-1.55-1.8-13-2.55-21.7-.2-3.2-.35-6.7-.35-6.3-.35-13.45 0-13.6 4.9-29.7 5.75-18.6 13.35-25.9 1.9-1.3 3.6-1.3 4.15 0 6.2 8.8 1.65 5.85 2.15 13.75m-36.5 97.35q2.6-2.4 6.8-4.3l3.35 25.3q-6.45 2.15-11.5 7.25-2.5 2.5-5.25 6.7-3.65 7.15-3.65 16.2 0 6.1 2.35 11.1 2.3 5 8.85 10.15-3.6-5.6-3.6-14.55-.1-4.4 1.1-7.65.2-1.05.8-2 3.95-8.75 13.85-10.65l10.85 58.45q-2.35.4-5 .4-4.55 0-8.7-.6-14.2-2.05-24.6-10.85-14.05-11.95-14.05-31.15 0-13.15 5.95-24.85 5.15-9.75 14.2-20.4.95-.95 2.4-2.7 3.35-3.6 5.85-5.85m34.8 38.75q6 1.7 10.3 5.75 8.2 7.6 8.2 19.2 0 9.55-4.9 16.95-2.5 4.05-6.65 7.4-.95.7-2.15 1.4-4.2 2.5-11.2 5.25l-8.95-57.85q9.55 0 15.35 1.9z"/></g></defs><use xlink:href="#a"/></svg>